SplineFontDB: 3.0
FontName: Rozerofo
FullName: Rozerofo
FamilyName: Rozerofo
Weight: Regular
Copyright: Copyright (c) 2017, Kisaragi Hiu\n\nGlyphs of numbers 0..9 are from GenJyuu Gothic version 1.002.20150607.
UComments: "2017-4-29: Created with FontForge (http://fontforge.org)"
Version: 0.7
ItalicAngle: -31.4
UnderlinePosition: -102
UnderlineWidth: 51
Ascent: 819
Descent: 205
InvalidEm: 0
LayerCount: 2
Layer: 0 0 "+gMyXYgAA" 1
Layer: 1 0 "+Uk2XYgAA" 0
XUID: [1021 811 1269689650 7253454]
FSType: 0
OS2Version: 0
OS2_WeightWidthSlopeOnly: 0
OS2_UseTypoMetrics: 1
CreationTime: 1493454996
ModificationTime: 1494581700
PfmFamily: 17
TTFWeight: 400
TTFWidth: 5
LineGap: 92
VLineGap: 0
OS2TypoAscent: 0
OS2TypoAOffset: 1
OS2TypoDescent: 0
OS2TypoDOffset: 1
OS2TypoLinegap: 92
OS2WinAscent: 0
OS2WinAOffset: 1
OS2WinDescent: 0
OS2WinDOffset: 1
HheadAscent: 0
HheadAOffset: 1
HheadDescent: 0
HheadDOffset: 1
OS2Vendor: 'PfEd'
Lookup: 1 0 0 "GenJyuuGothic-Regular-'vert' Vertical Alternates (obs) lookup 0" { "GenJyuuGothic-Regular-'vert' Vertical Alternates (obs) lookup 0 subtable"  } ['vert' ('DFLT' <'dflt' > 'cyrl' <'dflt' > 'grek' <'dflt' > 'hani' <'dflt' > 'kana' <'JAN ' 'dflt' > 'latn' <'dflt' > ) ]
Lookup: 1 0 0 "GenJyuuGothic-Regular-'jp90' JIS90 Forms lookup 1" { "GenJyuuGothic-Regular-'jp90' JIS90 Forms lookup 1 subtable"  } ['jp90' ('DFLT' <'dflt' > 'cyrl' <'dflt' > 'grek' <'dflt' > 'hani' <'dflt' > 'kana' <'JAN ' 'dflt' > 'latn' <'dflt' > ) ]
Lookup: 1 0 0 "GenJyuuGothic-Regular-'jp83' JIS83 Forms lookup 2" { "GenJyuuGothic-Regular-'jp83' JIS83 Forms lookup 2 subtable"  } ['jp83' ('DFLT' <'dflt' > 'cyrl' <'dflt' > 'grek' <'dflt' > 'hani' <'dflt' > 'kana' <'JAN ' 'dflt' > 'latn' <'dflt' > ) ]
Lookup: 1 0 0 "GenJyuuGothic-Regular-'jp78' JIS78 Forms lookup 3" { "GenJyuuGothic-Regular-'jp78' JIS78 Forms lookup 3 subtable"  } ['jp78' ('DFLT' <'dflt' > 'cyrl' <'dflt' > 'grek' <'dflt' > 'hani' <'dflt' > 'kana' <'JAN ' 'dflt' > 'latn' <'dflt' > ) ]

StartChar: T
Encoding: 84 84 0
Width: 673
VWidth: 0
Flags: HW
LayerCount: 2
Fore
SplineSet
423 787 m 0
 499 790 507 784 622 775 c 0
 644 773 629 678 623 657 c 0
 620 648 577 648 570 655 c 0
 558 667 584 708 566 709 c 0
 461 714 415 740 413 705 c 0
 395 415 440 186 537 142 c 0
 568 128 542 395 550 398 c 0
 552 399 613 386 617 379 c 0
 623 370 655 11 583 35 c 0
 419 89 343 202 335 736 c 4
 334 793 366 785 423 787 c 0
260 104 m 0
 260 141 273 495 270 467 c 0
 260 377 204 212 137 99 c 0
 127 83 260 83 260 104 c 0
29 53 m 0
 156 266 218 495 260 665 c 0
 269 703 264 710 264 716 c 0
 264 743 175 721 168 721 c 0
 111 721 120 713 91 713 c 0
 79 713 93 678 82 676 c 0
 53 672 27 673 19 677 c 0
 7 683 6 788 38 784 c 0
 130 772 210 801 288 792 c 0
 311 789 334 768 333 759 c 0
 330 705 335 275 335 30 c 0
 335 17 13 26 29 53 c 0
EndSplineSet
EndChar

StartChar: L
Encoding: 76 76 1
Width: 677
VWidth: 0
Flags: HW
LayerCount: 2
Fore
SplineSet
255 708 m 0
 260 745 162 726 162 726 c 2
 151 729 162 641 151 639 c 0
 122 635 89 638 88 647 c 0
 87 657 86 792 99 792 c 0
 189 792 214 802 292 792 c 0
 315 789 338 766 337 757 c 0
 311 508 257 181 47 45 c 0
 27 32 37 259 37 359 c 0
 37 363 91 363 104 368 c 0
 118 373 100 196 112 216 c 0
 207 374 213 395 255 708 c 0
434 787 m 0
 510 790 518 784 633 775 c 0
 655 773 644 91 637 70 c 0
 634 61 575 61 568 68 c 0
 558 78 576 693 559 696 c 0
 460 714 432 722 419 706 c 0
 408 693 417 156 417 144 c 4
 417 136 464 139 478 145 c 0
 488 149 472 192 482 201 c 0
 495 213 519 206 531 206 c 0
 543 206 539 183 540 155 c 0
 541 122 538 65 539 63 c 0
 545 54 369 58 344 66 c 0
 319 74 351 202 343 736 c 0
 342 793 377 785 434 787 c 0
EndSplineSet
EndChar

StartChar: E
Encoding: 69 69 2
Width: 673
VWidth: 0
Flags: HW
LayerCount: 2
Fore
SplineSet
415 348 m 4
 416 319 407 128 425 92 c 0
 434 74 572 102 573 115 c 0
 579 183 574 323 571 362 c 0
 570 374 414 364 415 348 c 4
166 729 m 0
 110 735 115 729 86 729 c 0
 27 729 -27 778 38 784 c 0
 130 793 210 801 288 792 c 0
 311 789 334 768 333 759 c 0
 330 705 314 688 286 660 c 0
 250 624 225 622 224 565 c 0
 222 485 347 478 326 401 c 0
 285 251 138 119 173 111 c 0
 222 100 224 129 302 127 c 0
 327 126 325 45 300 41 c 0
 199 26 13 5 36 43 c 0
 155 238 229 338 244 397 c 0
 254 438 124 512 140 573 c 0
 152 618 162 640 196 672 c 0
 278 749 202 725 166 729 c 0
430 787 m 0
 506 790 514 784 629 775 c 0
 651 773 636 678 630 657 c 0
 627 648 584 648 577 655 c 0
 565 667 591 708 573 709 c 0
 468 714 421 727 419 692 c 0
 410 513 414 473 422 439 c 0
 429 409 484 438 517 439 c 0
 551 440 627 455 631 430 c 0
 635 409 660 43 605 42 c 0
 512 40 353 -13 345 42 c 0
 336 103 343 531 339 736 c 0
 338 793 373 785 430 787 c 0
EndSplineSet
EndChar

StartChar: F
Encoding: 70 70 3
Width: 673
VWidth: 0
Flags: HW
LayerCount: 2
Fore
SplineSet
142 709 m 0
 168 407 144 115 85 41 c 0
 61 11 14 62 40 94 c 4
 86 149 85 518 64 717 c 4
 61 748 51 807 92 808 c 0
 164 810 121 777 151 774 c 0
 327 757 394 771 571 761 c 0
 607 759 654 782 650 746 c 0
 644 691 647 649 646 589 c 0
 645 556 580 548 573 581 c 0
 545 718 587 672 573 688 c 0
 543 722 459 692 364 698 c 0
 339 700 337 591 338 451 c 0
 338 430 568 444 568 422 c 0
 568 417 556 200 654 48 c 0
 658 42 614 11 589 44 c 0
 475 189 512 363 493 359 c 0
 448 350 340 368 340 362 c 0
 342 253 342 119 335 30 c 0
 267 43 l 0
 255 58 268 397 263 698 c 0
 263 726 141 717 142 709 c 0
EndSplineSet
EndChar

StartChar: K
Encoding: 75 75 4
Width: 673
VWidth: 0
Flags: HW
LayerCount: 2
Fore
SplineSet
595 798 m 0
 589 723 539 209 652 82 c 0
 657 77 579 40 575 46 c 0
 460 228 510 637 501 730 c 0
 499 750 377 739 379 737 c 0
 399 715 458 157 345 47 c 0
 333 35 289 117 294 126 c 0
 382 288 298 790 299 795 c 0
 303 811 596 806 595 798 c 0
110 114 m 0
 110 111 248 129 273 116 c 0
 300 102 286 48 280 46 c 0
 261 40 31 36 31 45 c 0
 33 164 21 776 27 795 c 0
 32 811 237 800 243 802 c 0
 247 803 246 649 234 617 c 0
 229 604 204 614 187 622 c 0
 172 629 181 739 176 742 c 0
 154 755 103 739 103 736 c 0
 100 682 110 359 110 114 c 0
EndSplineSet
EndChar

StartChar: J
Encoding: 74 74 6
Width: 677
VWidth: 0
Flags: HW
LayerCount: 2
Fore
SplineSet
254 713 m 0
 260 750 92 716 58 729 c 0
 44 734 43 775 66 785 c 0
 98 799 220 786 292 792 c 0
 315 794 338 766 337 757 c 0
 311 508 249 190 76 41 c 0
 62 29 6 81 31 110 c 0
 160 259 204 379 254 713 c 0
434 787 m 0
 510 790 518 785 633 775 c 0
 655 773 644 91 637 70 c 0
 634 61 571 68 564 75 c 0
 554 85 573 705 556 704 c 0
 477 701 432 721 422 708 c 0
 416 701 408 97 400 77 c 0
 389 50 390 47 344 66 c 0
 320 76 351 202 343 736 c 0
 342 793 377 785 434 787 c 0
EndSplineSet
EndChar

StartChar: I
Encoding: 73 73 7
Width: 673
VWidth: 0
Flags: HW
LayerCount: 2
Fore
SplineSet
36 43 m 4
 70 254 94 422 117 708 c 4
 119 732 98 706 46 708 c 4
 15 709 37 766 60 788 c 4
 77 804 184 800 199 779 c 4
 217 754 180 312 138 124 c 4
 131 93 241 113 319 111 c 4
 344 110 348 38 323 34 c 4
 222 19 29 -1 36 43 c 4
626 43 m 4
 626 20 560 9 559 31 c 4
 550 170 559 454 549 480 c 4
 545 490 422 484 421 480 c 4
 414 455 423 193 424 37 c 4
 424 13 355 10 352 42 c 4
 346 103 330 734 338 769 c 4
 345 801 392 784 410 781 c 4
 432 777 409 552 421 551 c 4
 438 550 520 555 541 561 c 4
 561 567 550 622 559 757 c 4
 562 808 626 777 627 763 c 4
 636 604 631 318 626 43 c 4
EndSplineSet
EndChar

StartChar: H
Encoding: 72 72 8
Width: 673
VWidth: 0
Flags: HW
LayerCount: 2
Fore
SplineSet
176 793 m 0
 193 800 314 818 315 791 c 0
 323 499 320 189 307 36 c 0
 304 0 45 16 33 34 c 0
 12 64 96 220 50 323 c 0
 38 351 99 390 102 385 c 0
 179 252 110 137 126 105 c 4
 137 83 215 77 237 99 c 0
 251 113 248 525 241 714 c 0
 240 728 173 718 169 729 c 0
 165 740 165 789 176 793 c 0
648 40 m 0
 656 18 581 6 566 27 c 0
 549 50 541 238 531 264 c 0
 527 274 406 266 405 262 c 0
 398 237 407 197 408 41 c 0
 408 17 330 15 327 47 c 0
 321 108 321 749 329 784 c 0
 336 816 376 783 394 780 c 0
 416 776 393 329 405 328 c 0
 422 327 512 334 533 340 c 0
 553 346 514 702 533 757 c 0
 550 805 600 777 601 763 c 0
 607 651 616 454 616 258 c 0
 616 220 625 100 648 40 c 0
EndSplineSet
EndChar

StartChar: A
Encoding: 65 65 9
Width: 673
VWidth: 0
Flags: HW
LayerCount: 2
Fore
SplineSet
282 722 m 0
 181 724 118 734 122 709 c 0
 149 532 340 549 301 458 c 0
 274 396 106 124 132 120 c 0
 171 114 246 107 262 120 c 0
 277 132 271 209 271 231 c 0
 271 256 354 253 354 238 c 0
 354 178 361 52 336 51 c 0
 255 48 192 26 42 52 c 0
 -28 64 114 289 208 457 c 0
 237 509 41 494 21 784 c 0
 20 798 225 793 308 791 c 0
 344 790 318 721 282 722 c 0
423 787 m 0
 499 790 507 784 622 775 c 0
 644 773 630 678 623 657 c 0
 620 648 560 649 561 659 c 0
 563 686 575 712 557 713 c 0
 452 718 413 740 413 705 c 0
 413 484 445 281 538 178 c 4
 561 153 547 385 555 389 c 0
 557 390 618 377 622 370 c 0
 628 361 627 25 583 35 c 0
 367 84 328 520 332 736 c 0
 333 793 366 785 423 787 c 0
EndSplineSet
EndChar

StartChar: cid00017
Encoding: 48 48 18
Width: 568
GlyphClass: 2
Flags: W
LayerCount: 2
Fore
SplineSet
285 -13 m 0
 211.666666667 -13 154.166666667 20.1666666667 112.5 86.5 c 128
 70.8333333333 152.833333333 50 250 50 378 c 0
 50 505.333333333 70.6666666667 601.666666667 112 667 c 128
 153.333333333 732.333333333 211 765 285 765 c 0
 357.666666667 765 414.666666667 732.333333333 456 667 c 128
 497.333333333 601.666666667 518 505.333333333 518 378 c 0
 518 250 497.333333333 152.833333333 456 86.5 c 128
 414.666666667 20.1666666667 357.666666667 -13 285 -13 c 0
285 61 m 0
 329 61 363.666666667 87.1666666667 389 139.5 c 128
 414.333333333 191.833333333 427 271.333333333 427 378 c 0
 427 483.333333333 414.333333333 561.5 389 612.5 c 128
 363.666666667 663.5 329 689 285 689 c 0
 239.666666667 689 204.333333333 663.5 179 612.5 c 128
 153.666666667 561.5 141 483.333333333 141 378 c 0
 141 271.333333333 153.666666667 191.833333333 179 139.5 c 128
 204.333333333 87.1666666667 239.666666667 61 285 61 c 0
EndSplineSet
EndChar

StartChar: cid00018
Encoding: 49 49 19
Width: 568
GlyphClass: 2
Flags: W
LayerCount: 2
Fore
SplineSet
129 0 m 2
 118.333333333 0 109.166666667 3.83333333333 101.5 11.5 c 128
 93.8333333333 19.1666666667 90 28.3333333333 90 39 c 128
 90 49.6666666667 93.8333333333 58.8333333333 101.5 66.5 c 128
 109.166666667 74.1666666667 118.333333333 78 129 78 c 2
 250 78 l 2
 254.666666667 78 257 80.3333333333 257 85 c 2
 257 630 l 2
 257 635.333333333 254.666666667 638 250 638 c 2
 154 638 l 2
 145.333333333 638 138.166666667 640.833333333 132.5 646.5 c 128
 126.833333333 652.166666667 124 659.333333333 124 668 c 0
 124 676 126.666666667 683.333333333 132 690 c 128
 137.333333333 696.666666667 144.333333333 701 153 703 c 0
 188.333333333 711 220 721.333333333 248 734 c 0
 272 745.333333333 294.333333333 751 315 751 c 0
 325 751 333.5 747.5 340.5 740.5 c 128
 347.5 733.5 351 725 351 715 c 2
 351 85 l 2
 351 80.3333333333 353.666666667 78 359 78 c 2
 463 78 l 2
 473.666666667 78 482.833333333 74.1666666667 490.5 66.5 c 128
 498.166666667 58.8333333333 502 49.6666666667 502 39 c 128
 502 28.3333333333 498.166666667 19.1666666667 490.5 11.5 c 128
 482.833333333 3.83333333333 473.666666667 0 463 0 c 2
 129 0 l 2
EndSplineSet
EndChar

StartChar: cid00019
Encoding: 50 50 20
Width: 568
GlyphClass: 2
Flags: W
LayerCount: 2
Fore
SplineSet
73 0 m 2
 65 0 58.3333333333 2.66666666667 53 8 c 128
 47.6666666667 13.3333333333 45 20 45 28 c 0
 45 46 52 61.3333333333 66 74 c 0
 177.333333333 172.666666667 259 259.333333333 311 334 c 128
 363 408.666666667 389 477.333333333 389 540 c 0
 389 584.666666667 377.166666667 620.5 353.5 647.5 c 128
 329.833333333 674.5 295.5 688 250.5 688 c 128
 205.5 688 162.333333333 668.333333333 121 629 c 0
 113.666666667 621.666666667 104.833333333 617.833333333 94.5 617.5 c 128
 84.1666666667 617.166666667 75.3333333333 620.666666667 68 628 c 256
 60.6666666667 635.333333333 56.8333333333 644.166666667 56.5 654.5 c 128
 56.1666666667 664.833333333 60 673.666666667 68 681 c 0
 126.666666667 737 191.333333333 765 262 765 c 0
 328.666666667 765 381.666666667 744.833333333 421 704.5 c 128
 460.333333333 664.166666667 480 610.333333333 480 543 c 0
 480 473 455.333333333 400.5 406 325.5 c 128
 356.666666667 250.5 285.333333333 168.333333333 192 79 c 0
 190.666666667 78.3333333333 190.333333333 77.3333333333 191 76 c 128
 191.666666667 74.6666666667 192.666666667 74 194 74 c 0
 248.666666667 78.6666666667 287 81 309 81 c 2
 477 81 l 2
 487.666666667 81 497 77 505 69 c 128
 513 61 517 51.5 517 40.5 c 128
 517 29.5 513 20 505 12 c 128
 497 4 487.666666667 0 477 0 c 2
 73 0 l 2
EndSplineSet
EndChar

StartChar: three
Encoding: 51 51 21
Width: 568
GlyphClass: 2
Flags: W
LayerCount: 2
Fore
SplineSet
270 -13 m 0
 186 -13 115 12 57 62 c 0
 48.3333333333 70 44 80.3333333333 44 93 c 0
 44 103 47 112 53 120 c 128
 59 128 67.1666666667 132.333333333 77.5 133 c 128
 87.8333333333 133.666666667 97 130.666666667 105 124 c 0
 151.666666667 84.6666666667 204.333333333 65 263 65 c 0
 308.333333333 65 345.166666667 77.5 373.5 102.5 c 128
 401.833333333 127.5 416 161.333333333 416 204 c 0
 416 296.666666667 350 346.333333333 218 353 c 0
 208 353.666666667 199.5 357.5 192.5 364.5 c 128
 185.5 371.5 182 380 182 390 c 128
 182 400 185.5 408.5 192.5 415.5 c 128
 199.5 422.5 208 426.333333333 218 427 c 0
 278 431.666666667 321.666666667 446.5 349 471.5 c 128
 376.333333333 496.5 390 529 390 569 c 0
 390 605.666666667 378.666666667 634.833333333 356 656.5 c 128
 333.333333333 678.166666667 302.333333333 689.333333333 263 690 c 0
 219 688.666666667 177 672.333333333 137 641 c 0
 128.333333333 634.333333333 118.666666667 631.333333333 108 632 c 128
 97.3333333333 632.666666667 88.6666666667 637 82 645 c 256
 75.3333333333 653 72.3333333333 662.5 73 673.5 c 128
 73.6666666667 684.5 78.3333333333 693.333333333 87 700 c 0
 142.333333333 743.333333333 202.333333333 765 267 765 c 256
 331.666666667 765 384.166666667 748.333333333 424.5 715 c 128
 464.833333333 681.666666667 485 635.666666667 485 577 c 0
 485 533 473.333333333 495.666666667 450 465 c 128
 426.666666667 434.333333333 394.333333333 411.333333333 353 396 c 0
 351.666666667 395.333333333 351 394.333333333 351 393 c 128
 351 391.666666667 351.666666667 391 353 391 c 0
 399.666666667 379.666666667 437.666666667 357.333333333 467 324 c 128
 496.333333333 290.666666667 511 249.666666667 511 201 c 0
 511 135.666666667 488 83.6666666667 442 45 c 128
 396 6.33333333333 338.666666667 -13 270 -13 c 0
EndSplineSet
EndChar

StartChar: cid00026
Encoding: 57 57 22
Width: 568
GlyphClass: 2
Flags: W
LayerCount: 2
Fore
SplineSet
267 354 m 0
 323 354 374 385.666666667 420 449 c 0
 422.666666667 453 423.666666667 457.333333333 423 462 c 0
 417.666666667 536.666666667 401 593.5 373 632.5 c 128
 345 671.5 307.333333333 691 260 691 c 0
 223.333333333 691 193 675.333333333 169 644 c 128
 145 612.666666667 133 571.666666667 133 521 c 0
 133 469 144.5 428.166666667 167.5 398.5 c 128
 190.5 368.833333333 223.666666667 354 267 354 c 0
88 37 m 0
 79.3333333333 43.6666666667 74.8333333333 52.5 74.5 63.5 c 128
 74.1666666667 74.5 77.6666666667 84.3333333333 85 93 c 0
 91.6666666667 100.333333333 100.333333333 104.166666667 111 104.5 c 128
 121.666666667 104.833333333 131 102 139 96 c 0
 169 75.3333333333 201.666666667 65 237 65 c 0
 289.666666667 65 333.166666667 89.1666666667 367.5 137.5 c 128
 401.833333333 185.833333333 421 263.333333333 425 370 c 0
 425 371.333333333 424.333333333 372.166666667 423 372.5 c 128
 421.666666667 372.833333333 420.666666667 372.666666667 420 372 c 0
 397.333333333 345.333333333 371.166666667 324.166666667 341.5 308.5 c 128
 311.833333333 292.833333333 282 285 252 285 c 0
 188 285 137.5 305.333333333 100.5 346 c 128
 63.5 386.666666667 45 445 45 521 c 0
 45 592.333333333 65.8333333333 650.833333333 107.5 696.5 c 128
 149.166666667 742.166666667 200 765 260 765 c 0
 335.333333333 765 396.166666667 734.333333333 442.5 673 c 128
 488.833333333 611.666666667 512 523.333333333 512 408 c 0
 512 334.666666667 504.5 270.166666667 489.5 214.5 c 128
 474.5 158.833333333 454.166666667 114.833333333 428.5 82.5 c 128
 402.833333333 50.1666666667 374.166666667 26.1666666667 342.5 10.5 c 128
 310.833333333 -5.16666666667 276.666666667 -13 240 -13 c 0
 182 -13 131.333333333 3.66666666667 88 37 c 0
EndSplineSet
EndChar

StartChar: cid00025
Encoding: 56 56 23
Width: 568
GlyphClass: 2
Flags: W
LayerCount: 2
Fore
SplineSet
286 -13 m 256
 216.666666667 -13 159.333333333 5.83333333333 114 43.5 c 128
 68.6666666667 81.1666666667 46 128.666666667 46 186 c 0
 46 232 59 272.5 85 307.5 c 128
 111 342.5 143.333333333 370.666666667 182 392 c 0
 183.333333333 392.666666667 184 393.833333333 184 395.5 c 128
 184 397.166666667 183.333333333 398.666666667 182 400 c 0
 116 446 83 503 83 571 c 0
 83 627.666666667 102.333333333 673.666666667 141 709 c 128
 179.666666667 744.333333333 229 762 289 762 c 0
 351.666666667 762 401.666666667 743.666666667 439 707 c 128
 476.333333333 670.333333333 495 622.666666667 495 564 c 0
 495 528.666666667 485.166666667 495.166666667 465.5 463.5 c 128
 445.833333333 431.833333333 422.666666667 405.666666667 396 385 c 0
 394.666666667 383.666666667 394 382.166666667 394 380.5 c 128
 394 378.833333333 394.666666667 377.666666667 396 377 c 0
 479.333333333 328.333333333 521 263 521 181 c 0
 521 125.666666667 499.166666667 79.5 455.5 42.5 c 128
 411.833333333 5.5 355.333333333 -13 286 -13 c 256
330 410 m 0
 334.666666667 408.666666667 338.666666667 409.666666667 342 413 c 0
 390.666666667 457 415 505.666666667 415 559 c 0
 415 597 403.5 628.833333333 380.5 654.5 c 128
 357.5 680.166666667 326.333333333 693 287 693 c 0
 252.333333333 693 223.833333333 681.833333333 201.5 659.5 c 128
 179.166666667 637.166666667 168 607.666666667 168 571 c 0
 168 550.333333333 172.166666667 531.5 180.5 514.5 c 128
 188.833333333 497.5 201.333333333 482.666666667 218 470 c 128
 234.666666667 457.333333333 251.333333333 446.666666667 268 438 c 128
 284.666666667 429.333333333 305.333333333 420 330 410 c 0
288 56 m 0
 330.666666667 56 365.333333333 67.8333333333 392 91.5 c 128
 418.666666667 115.166666667 432 145.666666667 432 183 c 0
 432 202.333333333 428.333333333 220 421 236 c 128
 413.666666667 252 405 265.333333333 395 276 c 128
 385 286.666666667 370.5 297.666666667 351.5 309 c 128
 332.5 320.333333333 315.666666667 329.333333333 301 336 c 128
 286.333333333 342.666666667 266 351.333333333 240 362 c 0
 238.666666667 362.666666667 237 363 235 363 c 0
 232.333333333 363 229.666666667 362 227 360 c 0
 197.666666667 340 174.333333333 315.833333333 157 287.5 c 128
 139.666666667 259.166666667 131 228.333333333 131 195 c 0
 131 155 145.833333333 121.833333333 175.5 95.5 c 128
 205.166666667 69.1666666667 242.666666667 56 288 56 c 0
EndSplineSet
EndChar

StartChar: cid00024
Encoding: 55 55 24
Width: 568
GlyphClass: 2
Flags: W
LayerCount: 2
Fore
SplineSet
302 49 m 0
 301.333333333 35 296.166666667 23.3333333333 286.5 14 c 128
 276.833333333 4.66666666667 265 0 251 0 c 0
 237.666666667 0 226.666666667 4.66666666667 218 14 c 256
 209.333333333 23.3333333333 205 33.6666666667 205 45 c 0
 205 151.666666667 224.333333333 264.333333333 263 383 c 0
 294.333333333 477 343 571 409 665 c 0
 410.333333333 666.333333333 410.666666667 667.666666667 410 669 c 128
 409.333333333 670.333333333 408 671 406 671 c 2
 90 671 l 2
 79.3333333333 671 70 674.833333333 62 682.5 c 128
 54 690.166666667 50 699.5 50 710.5 c 128
 50 721.5 54 731 62 739 c 128
 70 747 79.3333333333 751 90 751 c 2
 492 751 l 2
 500 751 506.666666667 748.166666667 512 742.5 c 128
 517.333333333 736.833333333 520 730 520 722 c 0
 520 704 514.333333333 687.333333333 503 672 c 0
 431 575.333333333 381.166666667 481.5 353.5 390.5 c 128
 325.833333333 299.5 308.666666667 185.666666667 302 49 c 0
EndSplineSet
EndChar

StartChar: cid00021
Encoding: 52 52 25
Width: 568
GlyphClass: 2
Flags: W
LayerCount: 2
Fore
SplineSet
122 288 m 2
 121.333333333 286.666666667 121.333333333 285.333333333 122 284 c 128
 122.666666667 282.666666667 123.666666667 282 125 282 c 2
 340 282 l 2
 344.666666667 282 347 284.333333333 347 289 c 2
 347 512 l 2
 347 526 349 570.666666667 353 646 c 0
 353 647.333333333 352.333333333 648 351 648 c 128
 349.666666667 648 348.666666667 647.333333333 348 646 c 0
 332 614 312.333333333 578 289 538 c 1
 122 288 l 2
498 282 m 2
 508.666666667 282 517.666666667 278.333333333 525 271 c 128
 532.333333333 263.666666667 536 254.833333333 536 244.5 c 128
 536 234.166666667 532.333333333 225.333333333 525 218 c 128
 517.666666667 210.666666667 508.666666667 207 498 207 c 2
 444 207 l 2
 438.666666667 207 436 204.333333333 436 199 c 2
 436 45 l 2
 436 32.3333333333 431.666666667 21.6666666667 423 13 c 128
 414.333333333 4.33333333333 403.833333333 0 391.5 0 c 128
 379.166666667 0 368.666666667 4.33333333333 360 13 c 128
 351.333333333 21.6666666667 347 32.3333333333 347 45 c 2
 347 199 l 2
 347 204.333333333 344.666666667 207 340 207 c 2
 51 207 l 2
 42.3333333333 207 35 210 29 216 c 128
 23 222 20 229.333333333 20 238 c 0
 20 258 25.6666666667 276.666666667 37 294 c 2
 305 707 l 2
 323.666666667 736.333333333 350.333333333 751 385 751 c 0
 399 751 411 745.833333333 421 735.5 c 128
 431 725.166666667 436 713 436 699 c 2
 436 289 l 2
 436 284.333333333 438.666666667 282 444 282 c 2
 498 282 l 2
EndSplineSet
EndChar

StartChar: five
Encoding: 53 53 26
Width: 568
GlyphClass: 2
Flags: W
LayerCount: 2
Fore
SplineSet
267 -13 m 0
 186.333333333 -13 116.333333333 11.3333333333 57 60 c 0
 47.6666666667 68 43 78.3333333333 43 91 c 0
 43 100.333333333 46 109 52 117 c 256
 58 125 66 129.333333333 76 130 c 128
 86 130.666666667 95 127.666666667 103 121 c 0
 149 83.6666666667 201 65 259 65 c 0
 304.333333333 65 342.333333333 81.1666666667 373 113.5 c 128
 403.666666667 145.833333333 419 188.666666667 419 242 c 256
 419 295.333333333 404.833333333 337.166666667 376.5 367.5 c 128
 348.166666667 397.833333333 310.333333333 413 263 413 c 0
 229 413 195.666666667 403.333333333 163 384 c 0
 154.333333333 379.333333333 145.666666667 377 137 377 c 0
 129 377 121 379.333333333 113 384 c 0
 96.3333333333 394 88.6666666667 409 90 429 c 2
 108 692 l 2
 108.666666667 708.666666667 115.166666667 722.666666667 127.5 734 c 128
 139.833333333 745.333333333 154.333333333 751 171 751 c 2
 437 751 l 2
 448.333333333 751 457.833333333 747 465.5 739 c 128
 473.166666667 731 477 721.5 477 710.5 c 128
 477 699.5 473.166666667 690.166666667 465.5 682.5 c 128
 457.833333333 674.833333333 448.333333333 671 437 671 c 2
 201 671 l 2
 196.333333333 671 193.666666667 668.333333333 193 663 c 2
 176 461 l 2
 176 459.666666667 176.666666667 458.5 178 457.5 c 128
 179.333333333 456.5 180.666666667 456.333333333 182 457 c 0
 214.666666667 474.333333333 249.666666667 483 287 483 c 0
 353 483 407.166666667 463 449.5 423 c 128
 491.833333333 383 513 323.666666667 513 245 c 0
 513 191.666666667 501.166666667 145 477.5 105 c 128
 453.833333333 65 423.666666667 35.3333333333 387 16 c 128
 350.333333333 -3.33333333333 310.333333333 -13 267 -13 c 0
EndSplineSet
EndChar

StartChar: cid00023
Encoding: 54 54 27
Width: 568
GlyphClass: 2
Flags: W
LayerCount: 2
Fore
SplineSet
308 59 m 0
 344.666666667 59 375 75 399 107 c 128
 423 139 435 180 435 230 c 0
 435 282 423.666666667 322.666666667 401 352 c 128
 378.333333333 381.333333333 344.666666667 396 300 396 c 0
 244.666666667 396 195 366 151 306 c 0
 147.666666667 302 146.333333333 297.666666667 147 293 c 0
 153 217 169.833333333 159 197.5 119 c 128
 225.166666667 79 262 59 308 59 c 0
482 715 m 0
 490 707.666666667 494.166666667 698.5 494.5 687.5 c 128
 494.833333333 676.5 491.333333333 667 484 659 c 0
 477.333333333 651.666666667 468.833333333 647.833333333 458.5 647.5 c 128
 448.166666667 647.166666667 439 650 431 656 c 0
 403 676.666666667 372 687 338 687 c 0
 282 687 236.5 662.833333333 201.5 614.5 c 128
 166.5 566.166666667 147.666666667 488.666666667 145 382 c 0
 144.333333333 380.666666667 144.666666667 379.833333333 146 379.5 c 128
 147.333333333 379.166666667 148.333333333 379.333333333 149 380 c 0
 172.333333333 406.666666667 198.666666667 427.666666667 228 443 c 128
 257.333333333 458.333333333 286.333333333 466 315 466 c 0
 380.333333333 466 431.333333333 446 468 406 c 128
 504.666666667 366 523 307.333333333 523 230 c 0
 523 159.333333333 502.166666667 101.166666667 460.5 55.5 c 128
 418.833333333 9.83333333333 368 -13 308 -13 c 0
 233.333333333 -13 172.833333333 18.8333333333 126.5 82.5 c 128
 80.1666666667 146.166666667 57 238 57 358 c 0
 57 429.333333333 64.5 491.833333333 79.5 545.5 c 128
 94.5 599.166666667 115.166666667 641.5 141.5 672.5 c 128
 167.833333333 703.5 197.166666667 726.666666667 229.5 742 c 128
 261.833333333 757.333333333 297 765 335 765 c 0
 391 765 440 748.333333333 482 715 c 0
EndSplineSet
EndChar

StartChar: G
Encoding: 71 71 28
Width: 673
VWidth: 0
Flags: HW
LayerCount: 2
Fore
SplineSet
146 320 m 0
 143 320 138 126 143 126 c 0
 369 132 397 130 555 133 c 0
 561 133 564 316 563 319 c 0
 561 324 158 320 146 320 c 0
142 695 m 0
 144 585 144 494 144 421 c 0
 144 387 644 407 644 371 c 0
 643 299 653 47 625 51 c 0
 587 56 55 22 56 63 c 0
 62 384 49 769 68 770 c 0
 145 772 539 762 620 759 c 0
 632 759 647 641 645 581 c 0
 644 548 571 537 564 570 c 0
 536 707 556 662 542 678 c 0
 532 689 142 697 142 695 c 0
EndSplineSet
EndChar

StartChar: B
Encoding: 66 66 30
Width: 673
VWidth: 0
Flags: HW
LayerCount: 2
Fore
SplineSet
176 793 m 4
 193 800 314 818 315 791 c 4
 323 499 320 189 307 36 c 4
 304 0 45 16 33 34 c 4
 12 64 103 317 41 411 c 4
 24 436 96 498 99 493 c 4
 188 360 98 133 113 101 c 4
 124 79 215 77 237 99 c 4
 251 113 248 525 241 714 c 4
 240 728 173 718 169 729 c 4
 165 740 165 789 176 793 c 4
632 626 m 4
 633 603 574 601 559 622 c 4
 542 645 562 685 552 711 c 4
 548 721 411 714 410 710 c 4
 404 689 405 381 406 177 c 4
 406 156 524 324 568 324 c 4
 576 324 597 328 630 321 c 4
 640 319 633 91 630 43 c 4
 628 9 564 30 562 32 c 4
 556 37 562 227 556 220 c 4
 518 173 408 46 408 41 c 4
 408 17 330 15 327 47 c 4
 321 108 321 749 329 784 c 4
 336 816 600 790 618 790 c 4
 644 790 630 698 632 626 c 4
EndSplineSet
EndChar

StartChar: C
Encoding: 67 67 31
Width: 673
VWidth: 0
Flags: HW
LayerCount: 2
Fore
SplineSet
327 369 m 0
 323 345 326 191 329 107 c 0
 329 94 479 87 515 105 c 0
 519 107 512 292 513 359 c 0
 514 389 330 387 327 369 c 0
198 764 m 0
 214 462 188 207 142 109 c 0
 140 106 249 102 249 102 c 0
 249 352 251 478 249 764 c 0
 249 795 324 793 325 762 c 0
 327 668 328 641 330 449 c 0
 330 428 549 433 568 422 c 0
 599 403 585 203 597 32 c 1
 597 32 10 14 31 48 c 0
 77 124 144 462 120 760 c 0
 118 787 197 791 198 764 c 0
EndSplineSet
EndChar

StartChar: S
Encoding: 83 83 34
Width: 673
VWidth: 0
Flags: HW
LayerCount: 2
Fore
SplineSet
602 785 m 1
 602 785 391 105 425 101 c 0
 433 100 503 102 542 102 c 4
 551 102 540 133 549 198 c 0
 551 212 617 211 619 194 c 0
 627 122 631 26 629 26 c 0
 548 25 333 -11 327 47 c 0
 321 108 477 675 503 715 c 0
 513 731 328 742 327 714 c 0
 319 388 319 176 307 36 c 0
 304 0 45 16 33 34 c 0
 12 64 117 198 55 292 c 0
 38 317 110 379 113 374 c 0
 202 241 112 142 127 110 c 0
 138 88 205 88 227 110 c 0
 241 124 254 525 241 714 c 0
 240 728 134 713 130 724 c 0
 126 735 126 783 137 788 c 0
 151 794 580 821 602 785 c 1
EndSplineSet
EndChar

StartChar: D
Encoding: 68 68 36
Width: 673
VWidth: 0
Flags: HW
LayerCount: 2
Fore
SplineSet
380 656 m 5
 376 655 375 420 374 406 c 5
 453 404 504 410 511 410 c 0
 513 410 514 663 511 665 c 0
 506 668 443 652 380 656 c 5
594 786 m 0
 591 348 590 284 646 40 c 0
 654 4 578 5 565 40 c 0
 551 78 520 152 516 334 c 0
 516 355 160 348 160 342 c 0
 152 134 137 136 100 25 c 0
 99 22 18 10 31 48 c 0
 59 130 104 453 80 751 c 0
 78 778 156 782 158 755 c 0
 159 748 159 740 160 733 c 0
 161 724 509 729 516 729 c 4
 517 729 513 774 519 782 c 0
 525 789 594 793 594 786 c 0
305 661 m 5
 238 666 163 658 163 655 c 0
 164 631 161 437 162 412 c 0
 162 407 248 417 310 410 c 5
 307 412 316 664 305 661 c 5
EndSplineSet
EndChar

StartChar: O
Encoding: 79 79 38
Width: 673
VWidth: 0
Flags: HW
LayerCount: 2
Fore
SplineSet
382 696 m 0
 384 457 374 335 371 107 c 0
 371 92 541 99 539 106 c 4
 508 236 496 534 500 692 c 0
 500 698 382 706 382 696 c 0
279 760 m 0
 251 717 169 516 131 460 c 0
 112 432 314 331 272 263 c 0
 192 135 161 112 197 109 c 0
 221 107 202 107 285 109 c 0
 307 109 304 763 326 764 c 0
 351 765 577 781 577 758 c 0
 572 518 562 292 635 30 c 0
 639 17 20 18 29 34 c 0
 148 234 150 213 174 266 c 0
 191 304 25 420 36 434 c 0
 82 492 173 734 205 768 c 0
 224 788 292 780 279 760 c 0
EndSplineSet
EndChar

StartChar: U
Encoding: 85 85 39
Width: 673
VWidth: 0
Flags: HW
LayerCount: 2
Fore
SplineSet
649 794 m 0
 672 794 660 681 659 642 c 0
 659 634 605 629 586 639 c 0
 576 644 590 711 567 709 c 4
 503 703 436 715 436 698 c 0
 441 437 439 154 444 100 c 0
 446 80 528 94 564 98 c 0
 572 99 561 163 569 165 c 0
 596 170 636 172 637 164 c 0
 642 105 649 27 637 26 c 0
 505 18 351 9 351 35 c 0
 351 339 347 397 355 786 c 0
 355 804 532 796 649 794 c 0
43 650 m 0
 33 652 32 792 46 792 c 0
 138 792 335 799 333 785 c 0
 279 469 132 426 179 389 c 0
 331 269 379 25 308 22 c 0
 150 15 81 22 34 22 c 0
 13 22 22 102 38 101 c 0
 59 100 177 92 216 98 c 0
 242 102 253 204 98 353 c 0
 27 422 191 511 232 710 c 0
 236 730 194 728 122 725 c 0
 115 725 115 655 112 654 c 0
 92 648 53 648 43 650 c 0
EndSplineSet
EndChar

StartChar: M
Encoding: 77 77 42
Width: 673
VWidth: 0
Flags: HW
LayerCount: 2
Fore
SplineSet
442 721 m 0
 451.669921875 720.602539062 318 503 234 439 c 4
 234 439 262.001046892 357.001146177 426 289 c 0
 448.247070312 279.775390625 158.839740764 81.6152125307 170 29 c 0
 171.823242188 20.404296875 577 29.9990234375 637 36 c 0
 653.422851562 37.642578125 630.84375 236.8671875 639 220 c 0
 644.0546875 209.546875 568.268554688 223.06640625 568 211 c 0
 567 166 574.000319623 114.999822428 564 97 c 0
 558.811523438 87.6611328125 318.578125 80.8955078125 328 99 c 0
 333.450195312 109.47265625 557.169921875 283.612304688 544 289 c 0
 368 361 322 437 322 437 c 4
 430 527.490234375 547.124594 749.60999473 558 767 c 0
 573.764648438 792.208007812 118.427022876 794.144528214 121 774 c 0
 162 453 117 336 40 94 c 0
 27.4985929497 54.7098635563 69.9652981401 5.64525859262 85 41 c 0
 214.995727071 346.690485749 220.041098015 486.574746238 193 708 c 0
 189.295894005 738.330965463 296.000001368 727.001009841 442 721 c 0
EndSplineSet
EndChar

StartChar: N
Encoding: 78 78 44
Width: 673
VWidth: 0
Flags: HW
LayerCount: 2
Fore
SplineSet
512 798 m 0
 472 819 340 806.124515497 340 790 c 0
 340 486 331.998427855 214.000016898 330 28 c 0
 329.759765625 5.640625 514.7421875 21 639 21 c 0
 658 21 522 234 646 335 c 0
 660.813476562 347.065429688 585.992154293 397.68943525 576 382 c 0
 462 203 566 93 536 95 c 0
 447.991210938 100.8671875 409.699177213 83.8613290087 410 98 c 0
 416 380 422.239257812 472.596679688 410 729 c 0
 408.90234375 751.995117188 482.016601562 738.073242188 504 733 c 0
 517 730 531.010671853 788.019397277 512 798 c 0
307 36 m 0
 320 189 313 484 315 791 c 0
 315.215373609 824.059848974 242.225232499 802.918722515 243 782 c 0
 244.522952637 740.880278789 242.647460938 612.092773438 243 548 c 0
 243.095703125 530.48828125 121 544 107 786 c 0
 105.902829478 804.965376172 40.4105670625 795.598645172 41 776 c 0
 49 510 243.106445312 467.418945312 243 448 c 0
 242.912300647 431.973103855 242.8228635 415.941043046 242.73055954 400.000005905 c 0
 242.645034446 385.229689543 67 232 35 34 c 0
 32.6298230751 19.3345302772 96.5725814315 18.2433780192 101 32 c 0
 157 206 243.127929688 313.610351562 243 298 c 0
 242.022460938 178.298828125 239.439062217 49.8554149743 237 34 c 0
 232.26953125 3.2490234375 303.941594074 0.00491487447689 307 36 c 0
EndSplineSet
EndChar

StartChar: R
Encoding: 82 82 46
Width: 673
VWidth: 0
Flags: HW
LayerCount: 2
Fore
SplineSet
330 760 m 0
 269 245 162.075195312 200.532226562 163 204 c 0
 195 324 199.999385555 464.999995891 198 764 c 0
 197.819335938 791.017578125 101.279076051 782.937147098 104 756 c 4
 134 459 74 130 38 52 c 0
 38 52 345 90 357 510 c 0
 357.082599174 512.890971076 347.579101562 110.686523438 343 42 c 0
 342 27 577 37 646 42 c 0
 657.827064533 42.8570336618 654 175 652 199 c 0
 650.645507812 215.25390625 597.411132812 211.0234375 584 207 c 0
 574 204 586.292827075 119.004149127 576 113 c 0
 564 106 427.98046875 108.500976562 428 114 c 0
 428.033203125 123.149414062 436.494140625 756.619140625 436 766 c 0
 434 804 331.98062396 776.721661304 330 760 c 0
EndSplineSet
EndChar

